[center][b]
[img]http://www.shareimage.org/images/m5l5vpard1pi6nsh9ynn.jpeg[/img]
General info

Complete name : Big.Mommas.Like.Father.Like.Son.2011.TS.XViD-PRESTiGE.avi
Format : AVI
Format/Info : Audio Video Interleave
File size : 1.79 GiB
Duration : 1h 39mn
Overall bit rate : 2 567 Kbps
Writing library : MPlayer

** ** ** ** ** ** ** ** **

Audio

ID : 1
Format : MPEG Audio
Format version : Version 1
Format profile : Layer 3
Mode : Joint stereo
Codec ID : 55
Codec ID/Hint : MP3
Duration : 1h 39mn
Bit rate mode : Constant
Bit rate : 256 Kbps
Channel(s) : 2 channels
Sampling rate : 44.1 KHz
Compression mode : Lossy
Delay relative to video : 40ms
Stream size : 183 MiB (10%)
Alignment : Aligned on interleaves
Interleave, duration : 26 ms (0.65 video frame)
Interleave, preload duration : 809 ms

** ** ** ** ** ** ** ** **

Video

ID : 0
Format : MPEG-4 Visual
Format profile : Advanced Simple@L5
Format settings, BVOP : 2
Format settings, QPel : No
Format settings, GMC : No warppoints
Format settings, Matrix : Default (H.263)
Codec ID : XVID
Codec ID/Hint : XviD
Duration : 1h 39mn
Bit rate : 2 299 Kbps
Width : 720 pixels
Height : 480 pixels
Display aspect ratio : 3:2
Frame rate : 25.000 fps
Standard : NTSC
Color space : YUV
Chroma subsampling : 4:2:0
Bit depth : 8 bits
Scan type : Progressive
Compression mode : Lossy
Bits/(Pixel*Frame) : 0.266
Stream size : 1.60 GiB (90%)
Writing library : XviD 1.1.2 (UTC 2006-11-01)

** ** ** ** ** ** ** ** **

Plot  

FBI agent Malcolm Turner and his stepson Trent go undercover at an all-girls performing arts school after Trent witnesses a murder.

** ** ** ** ** ** ** ** **

Cast  

Martin Lawrence ... Malcolm / Big Momma
Brandon T. Jackson ... Trent / Charmaine
Jessica Lucas        ... Haley
Michelle Ang        ... Mia
Portia Doubleday ... Jasmine
Emily Rios         ... Isabelle
IMDb URL..........:http://www.imdb.com/title/tt1464174/

[/center][/b]
